<mxfile host="app.diagrams.net" agent="Mozilla/5.0 (Windows NT 10.0; Win64; x64) AppleWebKit/537.36 (KHTML, like Gecko) Chrome/136.0.0.0 Safari/537.36" version="27.0.2">
  <diagram name="PÃ¡gina-1" id="7JovJHk9fMrbc4J3PGce">
    <mxGraphModel dx="778" dy="1065" grid="1" gridSize="10" guides="1" tooltips="1" connect="1" arrows="1" fold="1" page="1" pageScale="1" pageWidth="1169" pageHeight="1654" math="0" shadow="0">
      <root>
        <mxCell id="0" />
        <mxCell id="1" parent="0" />
        <mxCell id="-OL1F0kNLfMSId8QyNOU-9" style="edgeStyle=orthogonalEdgeStyle;rounded=0;orthogonalLoop=1;jettySize=auto;html=1;exitX=0.5;exitY=0;exitDx=0;exitDy=0;entryX=0;entryY=0.5;entryDx=0;entryDy=0;" parent="1" source="-OL1F0kNLfMSId8QyNOU-1" target="-OL1F0kNLfMSId8QyNOU-8" edge="1">
          <mxGeometry relative="1" as="geometry" />
        </mxCell>
        <mxCell id="-OL1F0kNLfMSId8QyNOU-41" style="edgeStyle=orthogonalEdgeStyle;rounded=0;orthogonalLoop=1;jettySize=auto;html=1;exitX=0.5;exitY=1;exitDx=0;exitDy=0;entryX=0;entryY=0.5;entryDx=0;entryDy=0;" parent="1" source="-OL1F0kNLfMSId8QyNOU-1" target="-OL1F0kNLfMSId8QyNOU-39" edge="1">
          <mxGeometry relative="1" as="geometry" />
        </mxCell>
        <mxCell id="-OL1F0kNLfMSId8QyNOU-44" style="edgeStyle=orthogonalEdgeStyle;rounded=0;orthogonalLoop=1;jettySize=auto;html=1;exitX=0.5;exitY=1;exitDx=0;exitDy=0;entryX=0;entryY=0.5;entryDx=0;entryDy=0;" parent="1" source="-OL1F0kNLfMSId8QyNOU-1" target="-OL1F0kNLfMSId8QyNOU-40" edge="1">
          <mxGeometry relative="1" as="geometry" />
        </mxCell>
        <mxCell id="-OL1F0kNLfMSId8QyNOU-47" style="edgeStyle=orthogonalEdgeStyle;rounded=0;orthogonalLoop=1;jettySize=auto;html=1;exitX=0.5;exitY=1;exitDx=0;exitDy=0;entryX=0;entryY=0.5;entryDx=0;entryDy=0;" parent="1" source="-OL1F0kNLfMSId8QyNOU-1" target="-OL1F0kNLfMSId8QyNOU-45" edge="1">
          <mxGeometry relative="1" as="geometry" />
        </mxCell>
        <mxCell id="-OL1F0kNLfMSId8QyNOU-110" style="edgeStyle=orthogonalEdgeStyle;rounded=0;orthogonalLoop=1;jettySize=auto;html=1;exitX=1;exitY=0.5;exitDx=0;exitDy=0;entryX=0;entryY=0.5;entryDx=0;entryDy=0;" parent="1" source="-OL1F0kNLfMSId8QyNOU-1" target="-OL1F0kNLfMSId8QyNOU-109" edge="1">
          <mxGeometry relative="1" as="geometry" />
        </mxCell>
        <mxCell id="-OL1F0kNLfMSId8QyNOU-1" value="Cliente" style="whiteSpace=wrap;html=1;align=center;" parent="1" vertex="1">
          <mxGeometry x="20" y="330" width="100" height="40" as="geometry" />
        </mxCell>
        <mxCell id="-OL1F0kNLfMSId8QyNOU-22" style="edgeStyle=orthogonalEdgeStyle;rounded=0;orthogonalLoop=1;jettySize=auto;html=1;exitX=0.5;exitY=1;exitDx=0;exitDy=0;entryX=0.5;entryY=0;entryDx=0;entryDy=0;" parent="1" source="-OL1F0kNLfMSId8QyNOU-2" target="-OL1F0kNLfMSId8QyNOU-35" edge="1">
          <mxGeometry relative="1" as="geometry">
            <mxPoint x="635" y="280" as="targetPoint" />
          </mxGeometry>
        </mxCell>
        <mxCell id="-OL1F0kNLfMSId8QyNOU-78" style="edgeStyle=orthogonalEdgeStyle;rounded=0;orthogonalLoop=1;jettySize=auto;html=1;exitX=1;exitY=0.5;exitDx=0;exitDy=0;entryX=0;entryY=0.5;entryDx=0;entryDy=0;" parent="1" source="-OL1F0kNLfMSId8QyNOU-2" target="-OL1F0kNLfMSId8QyNOU-76" edge="1">
          <mxGeometry relative="1" as="geometry">
            <mxPoint x="725" y="240" as="sourcePoint" />
          </mxGeometry>
        </mxCell>
        <mxCell id="-OL1F0kNLfMSId8QyNOU-116" style="edgeStyle=orthogonalEdgeStyle;rounded=0;orthogonalLoop=1;jettySize=auto;html=1;exitX=1;exitY=0.5;exitDx=0;exitDy=0;entryX=0;entryY=0.5;entryDx=0;entryDy=0;" parent="1" source="-OL1F0kNLfMSId8QyNOU-2" target="-OL1F0kNLfMSId8QyNOU-113" edge="1">
          <mxGeometry relative="1" as="geometry" />
        </mxCell>
        <mxCell id="-OL1F0kNLfMSId8QyNOU-122" style="edgeStyle=orthogonalEdgeStyle;rounded=0;orthogonalLoop=1;jettySize=auto;html=1;exitX=1;exitY=0.5;exitDx=0;exitDy=0;entryX=0;entryY=0.5;entryDx=0;entryDy=0;" parent="1" source="-OL1F0kNLfMSId8QyNOU-2" target="-OL1F0kNLfMSId8QyNOU-75" edge="1">
          <mxGeometry relative="1" as="geometry" />
        </mxCell>
        <mxCell id="-OL1F0kNLfMSId8QyNOU-123" style="edgeStyle=orthogonalEdgeStyle;rounded=0;orthogonalLoop=1;jettySize=auto;html=1;exitX=1;exitY=0.5;exitDx=0;exitDy=0;entryX=0;entryY=0.5;entryDx=0;entryDy=0;" parent="1" source="-OL1F0kNLfMSId8QyNOU-2" target="LdGAOAUsnhiGMw5FZQp6-5" edge="1">
          <mxGeometry relative="1" as="geometry">
            <mxPoint x="760" y="80" as="targetPoint" />
          </mxGeometry>
        </mxCell>
        <mxCell id="-OL1F0kNLfMSId8QyNOU-2" value="Pedido" style="shape=ext;margin=3;double=1;whiteSpace=wrap;html=1;align=center;" parent="1" vertex="1">
          <mxGeometry x="615" y="180" width="100" height="40" as="geometry" />
        </mxCell>
        <mxCell id="-OL1F0kNLfMSId8QyNOU-102" style="edgeStyle=orthogonalEdgeStyle;rounded=0;orthogonalLoop=1;jettySize=auto;html=1;exitX=0.5;exitY=1;exitDx=0;exitDy=0;entryX=0;entryY=0.5;entryDx=0;entryDy=0;" parent="1" source="-OL1F0kNLfMSId8QyNOU-3" target="-OL1F0kNLfMSId8QyNOU-97" edge="1">
          <mxGeometry relative="1" as="geometry" />
        </mxCell>
        <mxCell id="-OL1F0kNLfMSId8QyNOU-103" style="edgeStyle=orthogonalEdgeStyle;rounded=0;orthogonalLoop=1;jettySize=auto;html=1;exitX=0.5;exitY=1;exitDx=0;exitDy=0;entryX=0;entryY=0.5;entryDx=0;entryDy=0;" parent="1" source="-OL1F0kNLfMSId8QyNOU-3" target="-OL1F0kNLfMSId8QyNOU-98" edge="1">
          <mxGeometry relative="1" as="geometry" />
        </mxCell>
        <mxCell id="-OL1F0kNLfMSId8QyNOU-104" style="edgeStyle=orthogonalEdgeStyle;rounded=0;orthogonalLoop=1;jettySize=auto;html=1;exitX=0.5;exitY=1;exitDx=0;exitDy=0;entryX=0;entryY=0.5;entryDx=0;entryDy=0;" parent="1" source="-OL1F0kNLfMSId8QyNOU-3" target="-OL1F0kNLfMSId8QyNOU-99" edge="1">
          <mxGeometry relative="1" as="geometry">
            <mxPoint x="775.6666666666667" y="990" as="targetPoint" />
          </mxGeometry>
        </mxCell>
        <mxCell id="-OL1F0kNLfMSId8QyNOU-3" value="Editorial" style="whiteSpace=wrap;html=1;align=center;" parent="1" vertex="1">
          <mxGeometry x="725" y="765" width="100" height="40" as="geometry" />
        </mxCell>
        <mxCell id="-OL1F0kNLfMSId8QyNOU-23" style="edgeStyle=orthogonalEdgeStyle;rounded=0;orthogonalLoop=1;jettySize=auto;html=1;exitX=0.5;exitY=1;exitDx=0;exitDy=0;entryX=0.5;entryY=0;entryDx=0;entryDy=0;" parent="1" source="-OL1F0kNLfMSId8QyNOU-4" target="-OL1F0kNLfMSId8QyNOU-27" edge="1">
          <mxGeometry relative="1" as="geometry">
            <mxPoint x="665" y="570" as="targetPoint" />
          </mxGeometry>
        </mxCell>
        <mxCell id="-OL1F0kNLfMSId8QyNOU-30" style="edgeStyle=orthogonalEdgeStyle;rounded=0;orthogonalLoop=1;jettySize=auto;html=1;exitX=1;exitY=0.5;exitDx=0;exitDy=0;entryX=0;entryY=0.5;entryDx=0;entryDy=0;" parent="1" source="-OL1F0kNLfMSId8QyNOU-4" target="-OL1F0kNLfMSId8QyNOU-29" edge="1">
          <mxGeometry relative="1" as="geometry" />
        </mxCell>
        <mxCell id="-OL1F0kNLfMSId8QyNOU-90" style="edgeStyle=orthogonalEdgeStyle;rounded=0;orthogonalLoop=1;jettySize=auto;html=1;exitX=0;exitY=0.5;exitDx=0;exitDy=0;entryX=1;entryY=0.5;entryDx=0;entryDy=0;" parent="1" source="-OL1F0kNLfMSId8QyNOU-4" target="-OL1F0kNLfMSId8QyNOU-86" edge="1">
          <mxGeometry relative="1" as="geometry" />
        </mxCell>
        <mxCell id="-OL1F0kNLfMSId8QyNOU-92" style="edgeStyle=orthogonalEdgeStyle;rounded=0;orthogonalLoop=1;jettySize=auto;html=1;exitX=0;exitY=0.5;exitDx=0;exitDy=0;entryX=1;entryY=0.5;entryDx=0;entryDy=0;" parent="1" source="-OL1F0kNLfMSId8QyNOU-4" target="-OL1F0kNLfMSId8QyNOU-82" edge="1">
          <mxGeometry relative="1" as="geometry" />
        </mxCell>
        <mxCell id="-OL1F0kNLfMSId8QyNOU-93" style="edgeStyle=orthogonalEdgeStyle;rounded=0;orthogonalLoop=1;jettySize=auto;html=1;exitX=0;exitY=0.5;exitDx=0;exitDy=0;entryX=1;entryY=0.5;entryDx=0;entryDy=0;" parent="1" source="-OL1F0kNLfMSId8QyNOU-4" target="-OL1F0kNLfMSId8QyNOU-85" edge="1">
          <mxGeometry relative="1" as="geometry" />
        </mxCell>
        <mxCell id="-OL1F0kNLfMSId8QyNOU-94" style="edgeStyle=orthogonalEdgeStyle;rounded=0;orthogonalLoop=1;jettySize=auto;html=1;exitX=0;exitY=0.5;exitDx=0;exitDy=0;entryX=1;entryY=0.5;entryDx=0;entryDy=0;" parent="1" source="-OL1F0kNLfMSId8QyNOU-4" target="-OL1F0kNLfMSId8QyNOU-87" edge="1">
          <mxGeometry relative="1" as="geometry" />
        </mxCell>
        <mxCell id="-OL1F0kNLfMSId8QyNOU-95" style="edgeStyle=orthogonalEdgeStyle;rounded=0;orthogonalLoop=1;jettySize=auto;html=1;exitX=0;exitY=0.5;exitDx=0;exitDy=0;entryX=1;entryY=0.5;entryDx=0;entryDy=0;" parent="1" source="-OL1F0kNLfMSId8QyNOU-4" target="-OL1F0kNLfMSId8QyNOU-88" edge="1">
          <mxGeometry relative="1" as="geometry" />
        </mxCell>
        <mxCell id="-OL1F0kNLfMSId8QyNOU-96" style="edgeStyle=orthogonalEdgeStyle;rounded=0;orthogonalLoop=1;jettySize=auto;html=1;exitX=0;exitY=0.5;exitDx=0;exitDy=0;entryX=1;entryY=0.5;entryDx=0;entryDy=0;" parent="1" source="-OL1F0kNLfMSId8QyNOU-4" target="-OL1F0kNLfMSId8QyNOU-89" edge="1">
          <mxGeometry relative="1" as="geometry" />
        </mxCell>
        <mxCell id="-OL1F0kNLfMSId8QyNOU-115" style="edgeStyle=orthogonalEdgeStyle;rounded=0;orthogonalLoop=1;jettySize=auto;html=1;exitX=0;exitY=0.5;exitDx=0;exitDy=0;entryX=1;entryY=0.5;entryDx=0;entryDy=0;" parent="1" source="-OL1F0kNLfMSId8QyNOU-4" target="-OL1F0kNLfMSId8QyNOU-114" edge="1">
          <mxGeometry relative="1" as="geometry" />
        </mxCell>
        <mxCell id="LdGAOAUsnhiGMw5FZQp6-9" style="edgeStyle=orthogonalEdgeStyle;rounded=0;orthogonalLoop=1;jettySize=auto;html=1;exitX=0;exitY=0.5;exitDx=0;exitDy=0;entryX=1;entryY=0.5;entryDx=0;entryDy=0;" edge="1" parent="1" source="-OL1F0kNLfMSId8QyNOU-4" target="LdGAOAUsnhiGMw5FZQp6-8">
          <mxGeometry relative="1" as="geometry" />
        </mxCell>
        <mxCell id="-OL1F0kNLfMSId8QyNOU-4" value="Libro" style="shape=ext;margin=3;double=1;whiteSpace=wrap;html=1;align=center;" parent="1" vertex="1">
          <mxGeometry x="615" y="450" width="100" height="40" as="geometry" />
        </mxCell>
        <mxCell id="-OL1F0kNLfMSId8QyNOU-119" style="edgeStyle=orthogonalEdgeStyle;rounded=0;orthogonalLoop=1;jettySize=auto;html=1;exitX=0.5;exitY=1;exitDx=0;exitDy=0;entryX=0;entryY=0.5;entryDx=0;entryDy=0;" parent="1" source="-OL1F0kNLfMSId8QyNOU-5" target="-OL1F0kNLfMSId8QyNOU-79" edge="1">
          <mxGeometry relative="1" as="geometry" />
        </mxCell>
        <mxCell id="-OL1F0kNLfMSId8QyNOU-120" style="edgeStyle=orthogonalEdgeStyle;rounded=0;orthogonalLoop=1;jettySize=auto;html=1;exitX=0.5;exitY=1;exitDx=0;exitDy=0;entryX=0;entryY=0.5;entryDx=0;entryDy=0;" parent="1" source="-OL1F0kNLfMSId8QyNOU-5" target="-OL1F0kNLfMSId8QyNOU-117" edge="1">
          <mxGeometry relative="1" as="geometry" />
        </mxCell>
        <mxCell id="LdGAOAUsnhiGMw5FZQp6-11" style="edgeStyle=orthogonalEdgeStyle;rounded=0;orthogonalLoop=1;jettySize=auto;html=1;exitX=0.5;exitY=1;exitDx=0;exitDy=0;entryX=0;entryY=0.5;entryDx=0;entryDy=0;" edge="1" parent="1" source="-OL1F0kNLfMSId8QyNOU-5" target="LdGAOAUsnhiGMw5FZQp6-10">
          <mxGeometry relative="1" as="geometry" />
        </mxCell>
        <mxCell id="-OL1F0kNLfMSId8QyNOU-5" value="Inventario" style="shape=ext;margin=3;double=1;whiteSpace=wrap;html=1;align=center;" parent="1" vertex="1">
          <mxGeometry x="945" y="450" width="100" height="40" as="geometry" />
        </mxCell>
        <mxCell id="-OL1F0kNLfMSId8QyNOU-10" style="edgeStyle=orthogonalEdgeStyle;rounded=0;orthogonalLoop=1;jettySize=auto;html=1;exitX=1;exitY=0.5;exitDx=0;exitDy=0;entryX=0;entryY=0.5;entryDx=0;entryDy=0;" parent="1" source="-OL1F0kNLfMSId8QyNOU-8" target="-OL1F0kNLfMSId8QyNOU-2" edge="1">
          <mxGeometry relative="1" as="geometry" />
        </mxCell>
        <mxCell id="-OL1F0kNLfMSId8QyNOU-8" value="Realiza" style="shape=rhombus;perimeter=rhombusPerimeter;whiteSpace=wrap;html=1;align=center;" parent="1" vertex="1">
          <mxGeometry x="100" y="170" width="120" height="60" as="geometry" />
        </mxCell>
        <mxCell id="-OL1F0kNLfMSId8QyNOU-11" value="(1,1)" style="text;html=1;align=center;verticalAlign=middle;resizable=0;points=[];autosize=1;strokeColor=none;fillColor=none;" parent="1" vertex="1">
          <mxGeometry x="70" y="300" width="50" height="30" as="geometry" />
        </mxCell>
        <mxCell id="-OL1F0kNLfMSId8QyNOU-12" value="(0,N)" style="text;html=1;align=center;verticalAlign=middle;resizable=0;points=[];autosize=1;strokeColor=none;fillColor=none;" parent="1" vertex="1">
          <mxGeometry x="555" y="170" width="50" height="30" as="geometry" />
        </mxCell>
        <mxCell id="-OL1F0kNLfMSId8QyNOU-15" style="edgeStyle=orthogonalEdgeStyle;rounded=0;orthogonalLoop=1;jettySize=auto;html=1;exitX=0.5;exitY=1;exitDx=0;exitDy=0;entryX=0.5;entryY=0;entryDx=0;entryDy=0;" parent="1" source="-OL1F0kNLfMSId8QyNOU-35" target="-OL1F0kNLfMSId8QyNOU-4" edge="1">
          <mxGeometry relative="1" as="geometry">
            <mxPoint x="665" y="365" as="sourcePoint" />
          </mxGeometry>
        </mxCell>
        <mxCell id="-OL1F0kNLfMSId8QyNOU-17" value="(1,N)" style="text;html=1;align=center;verticalAlign=middle;resizable=0;points=[];autosize=1;strokeColor=none;fillColor=none;" parent="1" vertex="1">
          <mxGeometry x="615" y="220" width="50" height="30" as="geometry" />
        </mxCell>
        <mxCell id="-OL1F0kNLfMSId8QyNOU-18" value="(1,N)" style="text;html=1;align=center;verticalAlign=middle;resizable=0;points=[];autosize=1;strokeColor=none;fillColor=none;" parent="1" vertex="1">
          <mxGeometry x="665" y="420" width="50" height="30" as="geometry" />
        </mxCell>
        <mxCell id="-OL1F0kNLfMSId8QyNOU-24" style="edgeStyle=orthogonalEdgeStyle;rounded=0;orthogonalLoop=1;jettySize=auto;html=1;exitX=0.5;exitY=1;exitDx=0;exitDy=0;entryX=0.5;entryY=0;entryDx=0;entryDy=0;" parent="1" source="-OL1F0kNLfMSId8QyNOU-27" target="-OL1F0kNLfMSId8QyNOU-3" edge="1">
          <mxGeometry relative="1" as="geometry">
            <mxPoint x="775" y="675" as="sourcePoint" />
          </mxGeometry>
        </mxCell>
        <mxCell id="-OL1F0kNLfMSId8QyNOU-25" value="(1,N)" style="text;html=1;align=center;verticalAlign=middle;resizable=0;points=[];autosize=1;strokeColor=none;fillColor=none;" parent="1" vertex="1">
          <mxGeometry x="665" y="490" width="50" height="30" as="geometry" />
        </mxCell>
        <mxCell id="-OL1F0kNLfMSId8QyNOU-26" value="(1,1)" style="text;html=1;align=center;verticalAlign=middle;resizable=0;points=[];autosize=1;strokeColor=none;fillColor=none;" parent="1" vertex="1">
          <mxGeometry x="775" y="735" width="50" height="30" as="geometry" />
        </mxCell>
        <mxCell id="-OL1F0kNLfMSId8QyNOU-27" value="Pertenece" style="shape=rhombus;perimeter=rhombusPerimeter;whiteSpace=wrap;html=1;align=center;" parent="1" vertex="1">
          <mxGeometry x="715" y="610" width="120" height="60" as="geometry" />
        </mxCell>
        <mxCell id="-OL1F0kNLfMSId8QyNOU-31" style="edgeStyle=orthogonalEdgeStyle;rounded=0;orthogonalLoop=1;jettySize=auto;html=1;exitX=1;exitY=0.5;exitDx=0;exitDy=0;entryX=0;entryY=0.5;entryDx=0;entryDy=0;" parent="1" source="-OL1F0kNLfMSId8QyNOU-29" target="-OL1F0kNLfMSId8QyNOU-5" edge="1">
          <mxGeometry relative="1" as="geometry" />
        </mxCell>
        <mxCell id="-OL1F0kNLfMSId8QyNOU-29" value="Existe" style="shape=rhombus;perimeter=rhombusPerimeter;whiteSpace=wrap;html=1;align=center;" parent="1" vertex="1">
          <mxGeometry x="775" y="440" width="120" height="60" as="geometry" />
        </mxCell>
        <mxCell id="-OL1F0kNLfMSId8QyNOU-32" value="(1,N)" style="text;html=1;align=center;verticalAlign=middle;resizable=0;points=[];autosize=1;strokeColor=none;fillColor=none;" parent="1" vertex="1">
          <mxGeometry x="715" y="440" width="50" height="30" as="geometry" />
        </mxCell>
        <mxCell id="-OL1F0kNLfMSId8QyNOU-33" value="(0,1)" style="text;html=1;align=center;verticalAlign=middle;resizable=0;points=[];autosize=1;strokeColor=none;fillColor=none;" parent="1" vertex="1">
          <mxGeometry x="895" y="440" width="50" height="30" as="geometry" />
        </mxCell>
        <mxCell id="LdGAOAUsnhiGMw5FZQp6-3" style="edgeStyle=orthogonalEdgeStyle;rounded=0;orthogonalLoop=1;jettySize=auto;html=1;exitX=1;exitY=0.5;exitDx=0;exitDy=0;entryX=0;entryY=0.5;entryDx=0;entryDy=0;" edge="1" parent="1" source="-OL1F0kNLfMSId8QyNOU-35" target="LdGAOAUsnhiGMw5FZQp6-1">
          <mxGeometry relative="1" as="geometry" />
        </mxCell>
        <mxCell id="LdGAOAUsnhiGMw5FZQp6-4" style="edgeStyle=orthogonalEdgeStyle;rounded=0;orthogonalLoop=1;jettySize=auto;html=1;exitX=1;exitY=0.5;exitDx=0;exitDy=0;entryX=0;entryY=0.5;entryDx=0;entryDy=0;" edge="1" parent="1" source="-OL1F0kNLfMSId8QyNOU-35" target="LdGAOAUsnhiGMw5FZQp6-2">
          <mxGeometry relative="1" as="geometry" />
        </mxCell>
        <mxCell id="LdGAOAUsnhiGMw5FZQp6-7" style="edgeStyle=orthogonalEdgeStyle;rounded=0;orthogonalLoop=1;jettySize=auto;html=1;exitX=1;exitY=0.5;exitDx=0;exitDy=0;entryX=0;entryY=0.5;entryDx=0;entryDy=0;" edge="1" parent="1" source="-OL1F0kNLfMSId8QyNOU-35" target="LdGAOAUsnhiGMw5FZQp6-6">
          <mxGeometry relative="1" as="geometry" />
        </mxCell>
        <mxCell id="LdGAOAUsnhiGMw5FZQp6-13" style="edgeStyle=orthogonalEdgeStyle;rounded=0;orthogonalLoop=1;jettySize=auto;html=1;exitX=1;exitY=0.5;exitDx=0;exitDy=0;entryX=0;entryY=0.5;entryDx=0;entryDy=0;" edge="1" parent="1" source="-OL1F0kNLfMSId8QyNOU-35" target="LdGAOAUsnhiGMw5FZQp6-12">
          <mxGeometry relative="1" as="geometry" />
        </mxCell>
        <mxCell id="-OL1F0kNLfMSId8QyNOU-35" value="Contiene" style="shape=associativeEntity;whiteSpace=wrap;html=1;align=center;" parent="1" vertex="1">
          <mxGeometry x="595" y="290" width="140" height="60" as="geometry" />
        </mxCell>
        <mxCell id="-OL1F0kNLfMSId8QyNOU-36" value="items" style="text;html=1;align=center;verticalAlign=middle;resizable=0;points=[];autosize=1;strokeColor=none;fillColor=none;" parent="1" vertex="1">
          <mxGeometry x="695" y="280" width="50" height="30" as="geometry" />
        </mxCell>
        <mxCell id="-OL1F0kNLfMSId8QyNOU-37" value="(1,N)" style="text;html=1;align=center;verticalAlign=middle;resizable=0;points=[];autosize=1;strokeColor=none;fillColor=none;" parent="1" vertex="1">
          <mxGeometry x="685" y="270" width="50" height="30" as="geometry" />
        </mxCell>
        <mxCell id="-OL1F0kNLfMSId8QyNOU-38" value="(1,N)" style="text;html=1;align=center;verticalAlign=middle;resizable=0;points=[];autosize=1;strokeColor=none;fillColor=none;" parent="1" vertex="1">
          <mxGeometry x="665" y="350" width="50" height="30" as="geometry" />
        </mxCell>
        <mxCell id="-OL1F0kNLfMSId8QyNOU-39" value="Nombre" style="ellipse;whiteSpace=wrap;html=1;align=center;" parent="1" vertex="1">
          <mxGeometry x="110" y="620" width="100" height="40" as="geometry" />
        </mxCell>
        <mxCell id="-OL1F0kNLfMSId8QyNOU-53" style="edgeStyle=orthogonalEdgeStyle;rounded=0;orthogonalLoop=1;jettySize=auto;html=1;exitX=1;exitY=0.5;exitDx=0;exitDy=0;entryX=0;entryY=0.5;entryDx=0;entryDy=0;" parent="1" target="-OL1F0kNLfMSId8QyNOU-49" edge="1">
          <mxGeometry relative="1" as="geometry">
            <mxPoint x="230" y="700" as="sourcePoint" />
            <Array as="points">
              <mxPoint x="230" y="730" />
            </Array>
          </mxGeometry>
        </mxCell>
        <mxCell id="-OL1F0kNLfMSId8QyNOU-54" style="edgeStyle=orthogonalEdgeStyle;rounded=0;orthogonalLoop=1;jettySize=auto;html=1;exitX=1;exitY=0.5;exitDx=0;exitDy=0;entryX=0;entryY=0.5;entryDx=0;entryDy=0;" parent="1" target="-OL1F0kNLfMSId8QyNOU-50" edge="1">
          <mxGeometry relative="1" as="geometry">
            <mxPoint x="230" y="700" as="sourcePoint" />
            <Array as="points">
              <mxPoint x="230" y="780" />
            </Array>
          </mxGeometry>
        </mxCell>
        <mxCell id="-OL1F0kNLfMSId8QyNOU-55" style="edgeStyle=orthogonalEdgeStyle;rounded=0;orthogonalLoop=1;jettySize=auto;html=1;exitX=1;exitY=0.5;exitDx=0;exitDy=0;entryX=0;entryY=0.5;entryDx=0;entryDy=0;" parent="1" source="-OL1F0kNLfMSId8QyNOU-40" target="-OL1F0kNLfMSId8QyNOU-51" edge="1">
          <mxGeometry relative="1" as="geometry" />
        </mxCell>
        <mxCell id="-OL1F0kNLfMSId8QyNOU-57" style="edgeStyle=orthogonalEdgeStyle;rounded=0;orthogonalLoop=1;jettySize=auto;html=1;exitX=1;exitY=0.5;exitDx=0;exitDy=0;entryX=0;entryY=0.5;entryDx=0;entryDy=0;" parent="1" source="-OL1F0kNLfMSId8QyNOU-40" target="-OL1F0kNLfMSId8QyNOU-52" edge="1">
          <mxGeometry relative="1" as="geometry" />
        </mxCell>
        <mxCell id="-OL1F0kNLfMSId8QyNOU-40" value="DirecciÃ³n" style="ellipse;whiteSpace=wrap;html=1;align=center;" parent="1" vertex="1">
          <mxGeometry x="110" y="680" width="100" height="40" as="geometry" />
        </mxCell>
        <mxCell id="-OL1F0kNLfMSId8QyNOU-45" value="TelÃ©fono&lt;span style=&quot;color: rgba(0, 0, 0, 0); font-family: monospace; font-size: 0px; text-align: start; text-wrap-mode: nowrap;&quot;&gt;%3CmxGraphModel%3E%3Croot%3E%3CmxCell%20id%3D%220%22%2F%3E%3CmxCell%20id%3D%221%22%20parent%3D%220%22%2F%3E%3CmxCell%20id%3D%222%22%20value%3D%22Direcci%C3%B3n%22%20style%3D%22ellipse%3BwhiteSpace%3Dwrap%3Bhtml%3D1%3Balign%3Dcenter%3B%22%20vertex%3D%221%22%20parent%3D%221%22%3E%3CmxGeometry%20x%3D%22130%22%20y%3D%22460%22%20width%3D%22100%22%20height%3D%2240%22%20as%3D%22geometry%22%2F%3E%3C%2FmxCell%3E%3C%2Froot%3E%3C%2FmxGraphModel%3E&lt;/span&gt;" style="ellipse;whiteSpace=wrap;html=1;align=center;" parent="1" vertex="1">
          <mxGeometry x="110" y="740" width="100" height="40" as="geometry" />
        </mxCell>
        <mxCell id="-OL1F0kNLfMSId8QyNOU-46" value="E-mail" style="ellipse;whiteSpace=wrap;html=1;align=center;" parent="1" vertex="1">
          <mxGeometry x="110" y="804.5" width="100" height="40" as="geometry" />
        </mxCell>
        <mxCell id="-OL1F0kNLfMSId8QyNOU-48" style="edgeStyle=orthogonalEdgeStyle;rounded=0;orthogonalLoop=1;jettySize=auto;html=1;exitX=0.5;exitY=1;exitDx=0;exitDy=0;entryX=0;entryY=0.5;entryDx=0;entryDy=0;" parent="1" source="-OL1F0kNLfMSId8QyNOU-1" target="-OL1F0kNLfMSId8QyNOU-46" edge="1">
          <mxGeometry relative="1" as="geometry" />
        </mxCell>
        <mxCell id="-OL1F0kNLfMSId8QyNOU-49" value="Calle" style="ellipse;whiteSpace=wrap;html=1;align=center;" parent="1" vertex="1">
          <mxGeometry x="250" y="710" width="100" height="40" as="geometry" />
        </mxCell>
        <mxCell id="-OL1F0kNLfMSId8QyNOU-50" value="Colonia" style="ellipse;whiteSpace=wrap;html=1;align=center;" parent="1" vertex="1">
          <mxGeometry x="250" y="760" width="100" height="40" as="geometry" />
        </mxCell>
        <mxCell id="-OL1F0kNLfMSId8QyNOU-51" value="Ciudad" style="ellipse;whiteSpace=wrap;html=1;align=center;" parent="1" vertex="1">
          <mxGeometry x="250" y="810" width="100" height="40" as="geometry" />
        </mxCell>
        <mxCell id="-OL1F0kNLfMSId8QyNOU-52" value="Estado" style="ellipse;whiteSpace=wrap;html=1;align=center;" parent="1" vertex="1">
          <mxGeometry x="250" y="860" width="100" height="40" as="geometry" />
        </mxCell>
        <mxCell id="-OL1F0kNLfMSId8QyNOU-62" style="edgeStyle=orthogonalEdgeStyle;rounded=0;orthogonalLoop=1;jettySize=auto;html=1;exitX=0.5;exitY=1;exitDx=0;exitDy=0;exitPerimeter=0;entryX=0.5;entryY=0;entryDx=0;entryDy=0;" parent="1" source="-OL1F0kNLfMSId8QyNOU-58" target="-OL1F0kNLfMSId8QyNOU-61" edge="1">
          <mxGeometry relative="1" as="geometry" />
        </mxCell>
        <mxCell id="-OL1F0kNLfMSId8QyNOU-63" style="edgeStyle=orthogonalEdgeStyle;rounded=0;orthogonalLoop=1;jettySize=auto;html=1;exitX=0.5;exitY=1;exitDx=0;exitDy=0;exitPerimeter=0;entryX=0.5;entryY=0;entryDx=0;entryDy=0;" parent="1" source="-OL1F0kNLfMSId8QyNOU-58" target="-OL1F0kNLfMSId8QyNOU-60" edge="1">
          <mxGeometry relative="1" as="geometry" />
        </mxCell>
        <mxCell id="-OL1F0kNLfMSId8QyNOU-58" value="ID" style="strokeWidth=2;html=1;shape=mxgraph.flowchart.extract_or_measurement;whiteSpace=wrap;" parent="1" vertex="1">
          <mxGeometry x="135" y="370" width="95" height="40" as="geometry" />
        </mxCell>
        <mxCell id="-OL1F0kNLfMSId8QyNOU-59" style="edgeStyle=orthogonalEdgeStyle;rounded=0;orthogonalLoop=1;jettySize=auto;html=1;exitX=1;exitY=0.5;exitDx=0;exitDy=0;entryX=0.5;entryY=0;entryDx=0;entryDy=0;entryPerimeter=0;" parent="1" source="-OL1F0kNLfMSId8QyNOU-1" target="-OL1F0kNLfMSId8QyNOU-58" edge="1">
          <mxGeometry relative="1" as="geometry" />
        </mxCell>
        <mxCell id="-OL1F0kNLfMSId8QyNOU-71" style="edgeStyle=orthogonalEdgeStyle;rounded=0;orthogonalLoop=1;jettySize=auto;html=1;exitX=0.5;exitY=1;exitDx=0;exitDy=0;entryX=0;entryY=0.5;entryDx=0;entryDy=0;" parent="1" source="-OL1F0kNLfMSId8QyNOU-60" target="-OL1F0kNLfMSId8QyNOU-68" edge="1">
          <mxGeometry relative="1" as="geometry">
            <Array as="points">
              <mxPoint x="250" y="490" />
              <mxPoint x="250" y="520" />
            </Array>
          </mxGeometry>
        </mxCell>
        <mxCell id="-OL1F0kNLfMSId8QyNOU-72" style="edgeStyle=orthogonalEdgeStyle;rounded=0;orthogonalLoop=1;jettySize=auto;html=1;exitX=0.5;exitY=1;exitDx=0;exitDy=0;entryX=0;entryY=0.5;entryDx=0;entryDy=0;" parent="1" source="-OL1F0kNLfMSId8QyNOU-60" target="-OL1F0kNLfMSId8QyNOU-67" edge="1">
          <mxGeometry relative="1" as="geometry">
            <Array as="points">
              <mxPoint x="250" y="490" />
              <mxPoint x="250" y="570" />
            </Array>
          </mxGeometry>
        </mxCell>
        <mxCell id="-OL1F0kNLfMSId8QyNOU-60" value="PJ" style="rounded=1;arcSize=10;whiteSpace=wrap;html=1;align=center;" parent="1" vertex="1">
          <mxGeometry x="190" y="450" width="100" height="40" as="geometry" />
        </mxCell>
        <mxCell id="-OL1F0kNLfMSId8QyNOU-69" style="edgeStyle=orthogonalEdgeStyle;rounded=0;orthogonalLoop=1;jettySize=auto;html=1;exitX=0.5;exitY=1;exitDx=0;exitDy=0;entryX=0;entryY=0.5;entryDx=0;entryDy=0;" parent="1" source="-OL1F0kNLfMSId8QyNOU-61" target="-OL1F0kNLfMSId8QyNOU-66" edge="1">
          <mxGeometry relative="1" as="geometry">
            <Array as="points">
              <mxPoint x="120" y="490" />
              <mxPoint x="120" y="520" />
            </Array>
          </mxGeometry>
        </mxCell>
        <mxCell id="-OL1F0kNLfMSId8QyNOU-70" style="edgeStyle=orthogonalEdgeStyle;rounded=0;orthogonalLoop=1;jettySize=auto;html=1;exitX=0.5;exitY=1;exitDx=0;exitDy=0;entryX=0;entryY=0.5;entryDx=0;entryDy=0;" parent="1" source="-OL1F0kNLfMSId8QyNOU-61" target="-OL1F0kNLfMSId8QyNOU-65" edge="1">
          <mxGeometry relative="1" as="geometry">
            <Array as="points">
              <mxPoint x="120" y="490" />
              <mxPoint x="120" y="570" />
            </Array>
          </mxGeometry>
        </mxCell>
        <mxCell id="-OL1F0kNLfMSId8QyNOU-61" value="PF" style="rounded=1;arcSize=10;whiteSpace=wrap;html=1;align=center;" parent="1" vertex="1">
          <mxGeometry x="80" y="450" width="100" height="40" as="geometry" />
        </mxCell>
        <mxCell id="-OL1F0kNLfMSId8QyNOU-65" value="RUT" style="ellipse;whiteSpace=wrap;html=1;align=center;" parent="1" vertex="1">
          <mxGeometry x="140" y="550" width="100" height="40" as="geometry" />
        </mxCell>
        <mxCell id="-OL1F0kNLfMSId8QyNOU-66" value="DNI" style="ellipse;whiteSpace=wrap;html=1;align=center;" parent="1" vertex="1">
          <mxGeometry x="140" y="500" width="100" height="40" as="geometry" />
        </mxCell>
        <mxCell id="-OL1F0kNLfMSId8QyNOU-67" value="RUES" style="ellipse;whiteSpace=wrap;html=1;align=center;" parent="1" vertex="1">
          <mxGeometry x="280" y="550" width="100" height="40" as="geometry" />
        </mxCell>
        <mxCell id="-OL1F0kNLfMSId8QyNOU-68" value="NIT" style="ellipse;whiteSpace=wrap;html=1;align=center;" parent="1" vertex="1">
          <mxGeometry x="280" y="500" width="100" height="40" as="geometry" />
        </mxCell>
        <mxCell id="-OL1F0kNLfMSId8QyNOU-75" value="Fecha" style="ellipse;whiteSpace=wrap;html=1;align=center;" parent="1" vertex="1">
          <mxGeometry x="765" y="125" width="100" height="40" as="geometry" />
        </mxCell>
        <mxCell id="-OL1F0kNLfMSId8QyNOU-76" value="Valor" style="ellipse;whiteSpace=wrap;html=1;align=center;" parent="1" vertex="1">
          <mxGeometry x="765" y="180" width="100" height="40" as="geometry" />
        </mxCell>
        <mxCell id="-OL1F0kNLfMSId8QyNOU-79" value="Cantidad" style="ellipse;whiteSpace=wrap;html=1;align=center;" parent="1" vertex="1">
          <mxGeometry x="1030" y="510" width="100" height="40" as="geometry" />
        </mxCell>
        <mxCell id="-OL1F0kNLfMSId8QyNOU-82" value="ISBN" style="ellipse;whiteSpace=wrap;html=1;align=center;" parent="1" vertex="1">
          <mxGeometry x="430" y="400" width="100" height="40" as="geometry" />
        </mxCell>
        <mxCell id="-OL1F0kNLfMSId8QyNOU-84" value="CategorÃ­a" style="ellipse;whiteSpace=wrap;html=1;align=center;" parent="1" vertex="1">
          <mxGeometry x="430" y="350" width="100" height="40" as="geometry" />
        </mxCell>
        <mxCell id="-OL1F0kNLfMSId8QyNOU-85" value="AÃ±o de publicaciÃ³n" style="ellipse;whiteSpace=wrap;html=1;align=center;" parent="1" vertex="1">
          <mxGeometry x="430" y="450" width="100" height="40" as="geometry" />
        </mxCell>
        <mxCell id="-OL1F0kNLfMSId8QyNOU-86" value="Titulo" style="ellipse;whiteSpace=wrap;html=1;align=center;" parent="1" vertex="1">
          <mxGeometry x="430" y="300" width="100" height="40" as="geometry" />
        </mxCell>
        <mxCell id="-OL1F0kNLfMSId8QyNOU-87" value="Editorial" style="ellipse;whiteSpace=wrap;html=1;align=center;" parent="1" vertex="1">
          <mxGeometry x="430" y="500" width="100" height="40" as="geometry" />
        </mxCell>
        <mxCell id="-OL1F0kNLfMSId8QyNOU-88" value="Valor" style="ellipse;whiteSpace=wrap;html=1;align=center;" parent="1" vertex="1">
          <mxGeometry x="430" y="550" width="100" height="40" as="geometry" />
        </mxCell>
        <mxCell id="-OL1F0kNLfMSId8QyNOU-89" value="Autor (a)" style="ellipse;whiteSpace=wrap;html=1;align=center;" parent="1" vertex="1">
          <mxGeometry x="430" y="600" width="100" height="40" as="geometry" />
        </mxCell>
        <mxCell id="-OL1F0kNLfMSId8QyNOU-91" style="edgeStyle=orthogonalEdgeStyle;rounded=0;orthogonalLoop=1;jettySize=auto;html=1;exitX=0;exitY=0.5;exitDx=0;exitDy=0;entryX=0.997;entryY=0.725;entryDx=0;entryDy=0;entryPerimeter=0;" parent="1" source="-OL1F0kNLfMSId8QyNOU-4" target="-OL1F0kNLfMSId8QyNOU-84" edge="1">
          <mxGeometry relative="1" as="geometry" />
        </mxCell>
        <mxCell id="-OL1F0kNLfMSId8QyNOU-105" style="edgeStyle=orthogonalEdgeStyle;rounded=0;orthogonalLoop=1;jettySize=auto;html=1;exitX=1;exitY=0.5;exitDx=0;exitDy=0;entryX=0;entryY=0.5;entryDx=0;entryDy=0;" parent="1" source="-OL1F0kNLfMSId8QyNOU-97" target="-OL1F0kNLfMSId8QyNOU-100" edge="1">
          <mxGeometry relative="1" as="geometry" />
        </mxCell>
        <mxCell id="-OL1F0kNLfMSId8QyNOU-97" value="TelÃ©fono" style="ellipse;whiteSpace=wrap;html=1;align=center;" parent="1" vertex="1">
          <mxGeometry x="820" y="850" width="100" height="40" as="geometry" />
        </mxCell>
        <mxCell id="-OL1F0kNLfMSId8QyNOU-98" value="Nombre" style="ellipse;whiteSpace=wrap;html=1;align=center;" parent="1" vertex="1">
          <mxGeometry x="820" y="905.5" width="100" height="40" as="geometry" />
        </mxCell>
        <mxCell id="-OL1F0kNLfMSId8QyNOU-99" value="E-mail" style="ellipse;whiteSpace=wrap;html=1;align=center;" parent="1" vertex="1">
          <mxGeometry x="820" y="965.5" width="100" height="40" as="geometry" />
        </mxCell>
        <mxCell id="-OL1F0kNLfMSId8QyNOU-100" value="TelÃ©fono 1" style="ellipse;whiteSpace=wrap;html=1;align=center;dashed=1;" parent="1" vertex="1">
          <mxGeometry x="970" y="824.5" width="100" height="40" as="geometry" />
        </mxCell>
        <mxCell id="-OL1F0kNLfMSId8QyNOU-101" value="TelÃ©fono 2" style="ellipse;whiteSpace=wrap;html=1;align=center;dashed=1;" parent="1" vertex="1">
          <mxGeometry x="970" y="877" width="100" height="40" as="geometry" />
        </mxCell>
        <mxCell id="-OL1F0kNLfMSId8QyNOU-108" style="edgeStyle=orthogonalEdgeStyle;rounded=0;orthogonalLoop=1;jettySize=auto;html=1;exitX=1;exitY=0.5;exitDx=0;exitDy=0;entryX=0;entryY=0.75;entryDx=0;entryDy=0;entryPerimeter=0;" parent="1" source="-OL1F0kNLfMSId8QyNOU-97" target="-OL1F0kNLfMSId8QyNOU-101" edge="1">
          <mxGeometry relative="1" as="geometry" />
        </mxCell>
        <mxCell id="-OL1F0kNLfMSId8QyNOU-109" value="CÃ³digo cliente" style="ellipse;whiteSpace=wrap;html=1;align=center;fontStyle=4;" parent="1" vertex="1">
          <mxGeometry x="160" y="280" width="100" height="40" as="geometry" />
        </mxCell>
        <mxCell id="-OL1F0kNLfMSId8QyNOU-111" value="CÃ³digo editorial" style="ellipse;whiteSpace=wrap;html=1;align=center;fontStyle=4;" parent="1" vertex="1">
          <mxGeometry x="855" y="765" width="95" height="40" as="geometry" />
        </mxCell>
        <mxCell id="-OL1F0kNLfMSId8QyNOU-112" style="edgeStyle=orthogonalEdgeStyle;rounded=0;orthogonalLoop=1;jettySize=auto;html=1;exitX=1;exitY=0.5;exitDx=0;exitDy=0;entryX=0;entryY=0.5;entryDx=0;entryDy=0;" parent="1" source="-OL1F0kNLfMSId8QyNOU-3" target="-OL1F0kNLfMSId8QyNOU-111" edge="1">
          <mxGeometry relative="1" as="geometry" />
        </mxCell>
        <mxCell id="-OL1F0kNLfMSId8QyNOU-113" value="CÃ³digo cliente" style="ellipse;whiteSpace=wrap;html=1;align=center;fontStyle=4;" parent="1" vertex="1">
          <mxGeometry x="765" y="25" width="95" height="40" as="geometry" />
        </mxCell>
        <mxCell id="-OL1F0kNLfMSId8QyNOU-114" value="CÃ³digo editorial" style="ellipse;whiteSpace=wrap;html=1;align=center;fontStyle=4;" parent="1" vertex="1">
          <mxGeometry x="435" y="660" width="95" height="40" as="geometry" />
        </mxCell>
        <mxCell id="-OL1F0kNLfMSId8QyNOU-117" value="CÃ³digo editorial" style="ellipse;whiteSpace=wrap;html=1;align=center;fontStyle=4;" parent="1" vertex="1">
          <mxGeometry x="1030" y="570" width="95" height="40" as="geometry" />
        </mxCell>
        <mxCell id="LdGAOAUsnhiGMw5FZQp6-1" value="Cantidad" style="ellipse;whiteSpace=wrap;html=1;align=center;" vertex="1" parent="1">
          <mxGeometry x="785" y="330" width="100" height="40" as="geometry" />
        </mxCell>
        <mxCell id="LdGAOAUsnhiGMw5FZQp6-2" value="Valor" style="ellipse;whiteSpace=wrap;html=1;align=center;" vertex="1" parent="1">
          <mxGeometry x="785" y="380" width="100" height="40" as="geometry" />
        </mxCell>
        <mxCell id="LdGAOAUsnhiGMw5FZQp6-5" value="CÃ³digo pedido" style="ellipse;whiteSpace=wrap;html=1;align=center;fontStyle=4;" vertex="1" parent="1">
          <mxGeometry x="765" y="70" width="95" height="40" as="geometry" />
        </mxCell>
        <mxCell id="LdGAOAUsnhiGMw5FZQp6-6" value="CÃ³digo pedido" style="ellipse;whiteSpace=wrap;html=1;align=center;fontStyle=4;" vertex="1" parent="1">
          <mxGeometry x="785" y="230" width="95" height="40" as="geometry" />
        </mxCell>
        <mxCell id="LdGAOAUsnhiGMw5FZQp6-8" value="CÃ³digo libro" style="ellipse;whiteSpace=wrap;html=1;align=center;fontStyle=4;" vertex="1" parent="1">
          <mxGeometry x="435" y="710" width="95" height="40" as="geometry" />
        </mxCell>
        <mxCell id="LdGAOAUsnhiGMw5FZQp6-10" value="CÃ³digo libro" style="ellipse;whiteSpace=wrap;html=1;align=center;fontStyle=4;" vertex="1" parent="1">
          <mxGeometry x="1030" y="630" width="95" height="40" as="geometry" />
        </mxCell>
        <mxCell id="LdGAOAUsnhiGMw5FZQp6-12" value="CÃ³digo libro" style="ellipse;whiteSpace=wrap;html=1;align=center;fontStyle=4;" vertex="1" parent="1">
          <mxGeometry x="785" y="280" width="95" height="40" as="geometry" />
        </mxCell>
      </root>
    </mxGraphModel>
  </diagram>
</mxfile>
